#!OML:ASF X:\für Bonn\!DataBase\2005_08_10_Bjorn_Final\c3d\bjorn.ASF
:FULLY-SPECIFIED
:DEGREES
76
root 0.513547 11.3521 4.03998 -179.489 -0.461821 -181.176
lowerback 22.2458 1.99179 3.68156
upperback 12.6966 0.290857 -0.0530542
thorax 1.57129 -0.874768 -2.23108
lowerneck -25.055 -0.649733 2.80613
upperneck 4.90429 -1.72753 -4.75778
head 5.342 -1.39817 -2.20232
rclavicle 1.72943e-014 -3.97569e-016
rhumerus 81.9465 1.25685 -84.0892
rradius 4.81532
rwrist 54.6158
rhand -21.2994 11.8709
rfingers 7.12502
rthumb 5.08522 -18.0481
lclavicle 1.72943e-014 -3.97569e-016
lhumerus 79.7362 -10.0241 84.8269
lradius 4.77698
lwrist -63.3646
lhand -28.6242 -6.89967
lfingers 7.12502
lthumb -1.98877 23.0708
rfemur -75.457 -29.5497 10.9473
rtibia 128.106
rfoot -30.6681 33.7603
rtoes -26.2806
lfemur -74.295 16.3144 -18.7765
ltibia 129.855
lfoot -31.2516 -10.4322
ltoes -33.7927
77
root 0.512917 11.1161 4.02162 -179.923 -0.515506 -181.263
lowerback 22.7478 1.99774 3.69287
upperback 12.8306 0.229569 -0.0341339
thorax 1.47502 -0.940848 -2.20638
lowerneck -25.2048 -0.62615 2.73345
upperneck 4.74707 -1.71029 -4.70649
head 5.31443 -1.39787 -2.17324
rclavicle 1.37161e-014 3.18055e-015
rhumerus 81.9067 1.3204 -83.9872
rradius 4.58625
rwrist 54.7492
rhand -21.4943 11.7762
rfingers 7.12502
rthumb 4.89704 -18.1472
lclavicle 1.37161e-014 3.18055e-015
lhumerus 79.6058 -10.0236 84.8503
lradius 4.75601
lwrist -63.3174
lhand -28.5911 -6.87519
lfingers 7.12502
lthumb -1.95678 23.0956
rfemur -76.3592 -32.1071 10.4242
rtibia 130.035
rfoot -30.5548 35.4877
rtoes -25.9598
lfemur -75.2203 18.0981 -18.6963
ltibia 131.794
lfoot -31.4017 -11.6883
ltoes -33.9907
78
root 0.512039 10.8852 4.00252 -180.318 -0.580281 -181.33
lowerback 23.1813 2.00001 3.7287
upperback 12.9648 0.1702 -0.00558268
thorax 1.41481 -1.00253 -2.18515
lowerneck -25.3391 -0.622142 2.59352
upperneck 4.55081 -1.70679 -4.61337
head 5.27207 -1.40335 -2.12085
rclavicle 2.28602e-014 7.55382e-015
rhumerus 81.8565 1.36104 -83.87
rradius 4.376
rwrist 54.8875
rhand -21.6791 11.7347
rfingers 7.12502
rthumb 4.71865 -18.1928
lclavicle 2.28602e-014 7.55382e-015
lhumerus 79.4434 -10.037 84.8902
lradius 4.80456
lwrist -63.2719
lhand -28.5514 -6.91205
lfingers 7.12502
lthumb -1.91847 23.0591
rfemur -77.2709 -34.9329 9.92874
rtibia 131.908
rfoot -30.6002 37.1525
rtoes -25.876
lfemur -76.1814 20.0912 -18.6094
ltibia 133.687
lfoot -31.5709 -12.9821
ltoes -34.2099
79
root 0.511089 10.6594 3.98222 -180.712 -0.604383 -181.399
lowerback 23.6007 2.01579 3.75755
upperback 13.0867 0.130806 0.0173299
thorax 1.34992 -1.0532 -2.16946
lowerneck -25.4488 -0.615765 2.47852
upperneck 4.36282 -1.70322 -4.53681
head 5.2285 -1.40857 -2.07749
rclavicle 3.97569e-015 -5.56597e-015
rhumerus 81.798 1.41455 -83.7582
rradius 4.12131
rwrist 54.9732
rhand -21.9126 11.6556
rfingers 7.12502
rthumb 4.49319 -18.2767
lclavicle 3.97569e-015 -5.56597e-015
lhumerus 79.2245 -10.0741 84.9373
lradius 4.89316
lwrist -63.2032
lhand -28.5607 -6.87034
lfingers 7.12502
lthumb -1.92742 23.1007
rfemur -78.1395 -37.9511 9.38108
rtibia 133.718
rfoot -30.6536 38.972
rtoes -25.6163
lfemur -77.0936 22.3807 -18.5271
ltibia 135.512
lfoot -31.8485 -14.2394
ltoes -34.5577
80
root 0.509976 10.4421 3.96362 -181.116 -0.67023 -181.467
lowerback 24.0386 2.00918 3.82927
upperback 13.2029 0.0721919 0.0173421
thorax 1.27181 -1.11012 -2.1979
lowerneck -25.4699 -0.614151 2.39296
upperneck 4.10224 -1.71787 -4.45097
head 5.14798 -1.42066 -2.03568
rclavicle -1.98785e-016 1.55052e-014
rhumerus 81.7441 1.44195 -83.675
rradius 3.85335
rwrist 55.0967
rhand -22.1314 11.5546
rfingers 7.12502
rthumb 4.28193 -18.3821
lclavicle -1.98785e-016 1.55052e-014
lhumerus 78.9599 -10.1273 84.9578
lradius 5.02961
lwrist -63.1598
lhand -28.6304 -6.88493
lfingers 7.12502
lthumb -1.99472 23.0855
rfemur -78.9212 -41.1222 8.76664
rtibia 135.441
rfoot -30.8536 40.71
rtoes -25.5178
lfemur -77.9623 24.8052 -18.4388
ltibia 137.26
lfoot -32.1333 -15.5815
ltoes -34.6523
81
root 0.509977 10.2328 3.94302 -181.521 -0.705297 -181.533
lowerback 24.4758 2.01752 3.86046
upperback 13.3 0.0309548 0.0398433
thorax 1.17304 -1.16042 -2.18189
lowerneck -25.4761 -0.602672 2.29188
upperneck 3.87352 -1.70719 -4.3966
head 5.07667 -1.42216 -1.99902
rclavicle 1.2921e-014 -7.95139e-015
rhumerus 81.6743 1.49325 -83.5627
rradius 3.57194
rwrist 55.1037
rhand -22.368 11.54
rfingers 7.12502
rthumb 4.05342 -18.4011
lclavicle 1.2921e-014 -7.95139e-015
lhumerus 78.7023 -10.1411 85.0056
lradius 5.08798
lwrist -63.1693
lhand -28.7621 -6.88339
lfingers 7.12502
lthumb -2.12195 23.0858
rfemur -79.6117 -44.572 8.09393
rtibia 137.089
rfoot -31.2441 42.5637
rtoes -25.3631
lfemur -78.7531 27.4799 -18.34
ltibia 138.924
lfoot -32.5299 -16.8718
ltoes -34.9718
